<svg xmlns="http://www.w3.org/2000/svg" width="532" height="532" viewBox="50 103 266 266" role="img" aria-labelledby="title description">
<title id="title">参考图接缝比例标定</title><desc id="description">完整的四侧内升牌口、外出牌口和中央盖板。中央灰色方块为标定用控制盒，边长51参考像素。</desc>
<rect x="50" y="103" width="266" height="266" fill="#eeebe5"/>
<rect x="61" y="114" width="244" height="244" fill="#0b503d"/>
<g fill="none" stroke="#031e17" stroke-width="0.7" stroke-linejoin="miter">
<polygon points="138,188 228,188 232,192 232,280 228,284 138,284 134,280 134,192"/>
<path d="M136 190 L158 211"/>
<path d="M230 190 L209 211"/>
<path d="M230 282 L209 262"/>
<path d="M136 282 L158 262"/>
<rect x="139" y="154" width="137" height="13"><title>lift-top</title></rect>
<rect x="252" y="191" width="12" height="138"><title>lift-right</title></rect>
<rect x="90" y="305" width="137" height="13"><title>lift-bottom</title></rect>
<rect x="102" y="143" width="12" height="137"><title>lift-left</title></rect>
<rect x="139" y="114" width="99" height="12"><title>deal-top</title></rect>
<rect x="293" y="193" width="12" height="98"><title>deal-right</title></rect>
<rect x="127" y="346" width="100" height="12"><title>deal-bottom</title></rect>
<rect x="61" y="181" width="12" height="100"><title>deal-left</title></rect>
</g>
<rect x="158" y="211" width="51" height="51" rx="1.5" fill="#565761" stroke="#1c1e24" stroke-width="1"/>
<text x="183.5" y="239" text-anchor="middle" font-family="sans-serif" font-size="7" fill="#fff">控制盒</text>
</svg>
